<svg width="92" xmlns="http://www.w3.org/2000/svg" height="92" id="screenshot-2a3f1fc0-236e-80aa-8003-26805076733a" viewBox="193 479 92 92" style="-webkit-print-color-adjust::exact" xmlns:xlink="http://www.w3.org/1999/xlink" fill="none" version="1.1">
  <g id="shape-2a3f1fc0-236e-80aa-8003-26805076733a" data-testid="MySpace">
    <g fill="none">
      <g class="fills" id="fills-2a3f1fc0-236e-80aa-8003-26805076733a">
        <rect rx="0" ry="0" x="193" y="479" width="93" height="92" transform="matrix(1.000000, 0.000000, 0.000000, 1.000000, 0.000000, 0.000000)" class="frame-background">
        </rect>
      </g>
      <g class="frame-children">
        <g id="shape-2a3f1fc0-236e-80aa-8003-26805076733b" data-testid="base-background" style="display:none">
          <g class="fills" id="fills-2a3f1fc0-236e-80aa-8003-26805076733b">
            <rect rx="0" ry="0" x="193" y="479" transform="matrix(1.000000, 0.000000, 0.000000, 1.000000, 0.000000, 0.000000)" width="92" height="92.00000000000006" fill="none" style="fill:none">
            </rect>
          </g>
        </g>
        <g id="shape-2a3f1fc0-236e-80aa-8003-26805076733c" data-testid="svg-path">
          <g class="fills" id="fills-2a3f1fc0-236e-80aa-8003-26805076733c">
            <path d="M249.748,519.517C254.102,519.517,257.645,515.973,257.645,511.619C257.645,507.265,254.102,503.722,249.748,503.722C245.394,503.722,241.851,507.265,241.851,511.619C241.851,515.973,245.394,519.517,249.748,519.517ZZ" style="fill:#000000">
            </path>
          </g>
        </g>
        <g id="shape-2a3f1fc0-236e-80aa-8003-26805076733d" data-testid="svg-path">
          <g class="fills" id="fills-2a3f1fc0-236e-80aa-8003-26805076733d">
            <path d="M234.833,516.006C237.741,516.006,240.098,513.649,240.098,510.741C240.098,507.834,237.741,505.477,234.833,505.477C231.926,505.477,229.569,507.834,229.569,510.741C229.569,513.649,231.926,516.006,234.833,516.006ZZ" style="fill:#000000">
            </path>
          </g>
        </g>
        <g id="shape-2a3f1fc0-236e-80aa-8003-26805076733e" data-testid="svg-path">
          <g class="fills" id="fills-2a3f1fc0-236e-80aa-8003-26805076733e">
            <path d="M223.426,516.007C225.849,516.007,227.814,514.043,227.814,511.620C227.814,509.197,225.849,507.232,223.426,507.232C221.003,507.232,219.039,509.197,219.039,511.620C219.039,514.043,221.003,516.007,223.426,516.007ZZ" style="fill:#000000">
            </path>
          </g>
        </g>
        <g id="shape-2a3f1fc0-236e-80aa-8003-26805076733f" data-testid="svg-path">
          <g class="fills" id="fills-2a3f1fc0-236e-80aa-8003-26805076733f">
            <path d="M249.749,521.272C246.485,521.272,243.600,522.904,241.852,525.393L241.852,524.782C241.852,520.911,238.704,517.762,234.832,517.762C233.634,517.765,232.457,518.076,231.413,518.664C230.369,519.253,229.494,520.099,228.871,521.123C227.851,519.138,225.805,517.762,223.425,517.762C220.038,517.762,217.283,520.518,217.283,523.905L217.283,532.679C217.283,532.912,217.375,533.135,217.540,533.300C217.704,533.464,217.928,533.557,218.160,533.557L227.812,533.557L227.812,537.944C227.812,538.177,227.905,538.400,228.069,538.564C228.234,538.729,228.457,538.821,228.690,538.821L240.097,538.821L240.097,544.964C240.097,545.196,240.189,545.420,240.354,545.584C240.519,545.749,240.742,545.841,240.975,545.841L258.524,545.841C258.756,545.841,258.980,545.749,259.144,545.584C259.309,545.420,259.401,545.196,259.401,544.964L259.401,530.924C259.401,525.601,255.072,521.272,249.749,521.272ZZ" style="fill:#000000">
            </path>
          </g>
        </g>
      </g>
    </g>
  </g>
</svg>